# xmcd CD database file generated by OrangeCD 6.3
#
# Track frame offsets:
#	150
#	17280
#	34155
#	49270
#	66570
#	85070
#	100103
#	117430
#	136962
#	153255
#	170059
#	186493
#	200516
#	215770
#	236105
#	251464
#	270051
#	286525
#	299891
#	314462
#
# Disc length: 4410 seconds
#
# Revision: 1
# Processed by: cddbd v1.5.2PL0 Copyright (c) Steve Scherf et al.
# Submitted via: OrangeCD 6.3
#
DISCID=2b113814
DTITLE=Dave Sheriff - Best of Dave Sheriff Vol.2
DYEAR=1900
DGENRE=Line dance
TTITLE0=24-7-52
TTITLE1=You're Never Alone
TTITLE2=Fifty and Greyin'
TTITLE3=Jackson Waltz
TTITLE4=Buddy Holly
TTITLE5=It's Wrong You're Gone
TTITLE6=Stroll Along
TTITLE7=Cowgirl Twist
TTITLE8=Boogie Woogie Sheriff
TTITLE9=Ford Hotel
TTITLE10=Here We Are
TTITLE11=All Dressed Up
TTITLE12=One Good Woman
TTITLE13=Go Johnny Go
TTITLE14=Cowboy Rhythm
TTITLE15=Dancing Boots
TTITLE16=Cha Tango
TTITLE17=Norma Jean
TTITLE18=Reel Away
TTITLE19=Red Hot Salsa
EXTD=
EXTT0=
EXTT1=
EXTT2=
EXTT3=
EXTT4=
EXTT5=
EXTT6=
EXTT7=
EXTT8=
EXTT9=
EXTT10=
EXTT11=
EXTT12=
EXTT13=
EXTT14=
EXTT15=
EXTT16=
EXTT17=
EXTT18=
EXTT19=
PLAYORDER=
